<svg viewBox="0 0 160 36" fill="none" xmlns="http://www.w3.org/2000/svg">
<g filter="url(#filter0_d_36_804)">
<path d="M13.121 25.256C11.7983 25.256 10.657 25 9.69697 24.488C8.75831 23.976 7.99031 23.2933 7.39297 22.44V25H4.99297V2.6H7.39297V11.592C7.99031 10.7173 8.75831 10.024 9.69697 9.512C10.657 9 11.7983 8.744 13.121 8.744C14.6783 8.744 16.033 9.11733 17.185 9.864C18.3583 10.5893 19.265 11.5813 19.905 12.84C20.545 14.0773 20.865 15.464 20.865 17C20.865 18.5147 20.545 19.9013 19.905 21.16C19.265 22.4187 18.3583 23.4213 17.185 24.168C16.033 24.8933 14.6783 25.256 13.121 25.256ZM12.801 23.08C13.9956 23.08 15.009 22.8027 15.841 22.248C16.6943 21.6933 17.345 20.9573 17.793 20.04C18.241 19.1013 18.465 18.088 18.465 17C18.465 15.8907 18.241 14.8773 17.793 13.96C17.345 13.0427 16.6943 12.3067 15.841 11.752C15.009 11.1973 13.9956 10.92 12.801 10.92C11.6276 10.92 10.625 11.1973 9.79297 11.752C8.96097 12.3067 8.33164 13.0427 7.90497 13.96C7.47831 14.8773 7.26497 15.8907 7.26497 17C7.26497 18.088 7.47831 19.1013 7.90497 20.04C8.33164 20.9573 8.96097 21.6933 9.79297 22.248C10.625 22.8027 11.6276 23.08 12.801 23.08ZM31.4162 25.256C29.8589 25.256 28.4936 24.8933 27.3202 24.168C26.1682 23.4213 25.2722 22.4187 24.6322 21.16C23.9922 19.9013 23.6722 18.5147 23.6722 17C23.6722 15.464 23.9922 14.0773 24.6322 12.84C25.2722 11.5813 26.1682 10.5893 27.3202 9.864C28.4936 9.11733 29.8589 8.744 31.4162 8.744C32.7389 8.744 33.8696 9 34.8082 9.512C35.7682 10.024 36.5469 10.7173 37.1442 11.592V9H39.5442V25H37.1442V22.44C36.5469 23.2933 35.7682 23.976 34.8082 24.488C33.8696 25 32.7389 25.256 31.4162 25.256ZM31.7362 23.08C32.9309 23.08 33.9336 22.8027 34.7442 22.248C35.5762 21.6933 36.2056 20.9573 36.6322 20.04C37.0589 19.1013 37.2722 18.088 37.2722 17C37.2722 15.8907 37.0589 14.8773 36.6322 13.96C36.2056 13.0427 35.5762 12.3067 34.7442 11.752C33.9336 11.1973 32.9309 10.92 31.7362 10.92C30.5629 10.92 29.5496 11.1973 28.6962 11.752C27.8429 12.3067 27.1922 13.0427 26.7442 13.96C26.2962 14.8773 26.0722 15.8907 26.0722 17C26.0722 18.088 26.2962 19.1013 26.7442 20.04C27.1922 20.9573 27.8429 21.6933 28.6962 22.248C29.5496 22.8027 30.5629 23.08 31.7362 23.08ZM51.2155 25.256C49.6155 25.256 48.2288 24.8933 47.0555 24.168C45.8821 23.4213 44.9648 22.4187 44.3035 21.16C43.6635 19.9013 43.3435 18.5147 43.3435 17C43.3435 15.464 43.6635 14.0773 44.3035 12.84C44.9648 11.5813 45.8821 10.5893 47.0555 9.864C48.2288 9.11733 49.6155 8.744 51.2155 8.744C53.1141 8.744 54.7248 9.23467 56.0475 10.216C57.3915 11.1973 58.2981 12.4667 58.7675 14.024H56.1755C55.8128 13.1067 55.2261 12.36 54.4155 11.784C53.6261 11.208 52.6661 10.92 51.5355 10.92C50.3621 10.92 49.3381 11.1973 48.4635 11.752C47.5888 12.3067 46.9168 13.0427 46.4475 13.96C45.9781 14.8773 45.7435 15.8907 45.7435 17C45.7435 18.088 45.9781 19.1013 46.4475 20.04C46.9168 20.9573 47.5888 21.6933 48.4635 22.248C49.3381 22.8027 50.3621 23.08 51.5355 23.08C52.6661 23.08 53.6261 22.792 54.4155 22.216C55.2261 21.64 55.8128 20.8933 56.1755 19.976H58.7675C58.2981 21.5333 57.3915 22.8027 56.0475 23.784C54.7248 24.7653 53.1141 25.256 51.2155 25.256ZM62.3817 25V2.6H64.7817V16.936L72.4937 9H75.8537L69.4217 15.304L76.3337 25H73.3897L67.7897 16.968L64.7817 19.944V25H62.3817ZM84.9082 25.256C83.4362 25.256 82.1882 25.0107 81.1642 24.52C80.1616 24.0293 79.3936 23.3893 78.8602 22.6C78.3269 21.7893 78.0282 20.9147 77.9642 19.976H80.4602C80.5242 20.5093 80.7056 21.032 81.0042 21.544C81.3242 22.0347 81.8042 22.44 82.4442 22.76C83.0842 23.0587 83.9162 23.208 84.9402 23.208C85.2602 23.208 85.6549 23.176 86.1242 23.112C86.5936 23.048 87.0416 22.9307 87.4682 22.76C87.9162 22.5893 88.2896 22.3333 88.5882 21.992C88.8869 21.6507 89.0362 21.2133 89.0362 20.68C89.0362 20.0187 88.7802 19.5067 88.2682 19.144C87.7562 18.7813 87.0949 18.504 86.2842 18.312C85.4736 18.0987 84.6096 17.896 83.6922 17.704C82.7962 17.512 81.9429 17.2667 81.1322 16.968C80.3216 16.648 79.6602 16.2107 79.1482 15.656C78.6362 15.08 78.3802 14.3013 78.3802 13.32C78.3802 11.8693 78.9029 10.7493 79.9482 9.96C81.0149 9.14933 82.5829 8.744 84.6522 8.744C86.0602 8.744 87.2016 8.968 88.0762 9.416C88.9722 9.84267 89.6442 10.3973 90.0922 11.08C90.5616 11.7627 90.8389 12.4987 90.9242 13.288H88.4922C88.4069 12.6053 88.0656 12.0187 87.4682 11.528C86.8922 11.0373 85.9322 10.792 84.5882 10.792C82.0496 10.792 80.7802 11.56 80.7802 13.096C80.7802 13.736 81.0362 14.2267 81.5482 14.568C82.0602 14.9093 82.7216 15.1867 83.5322 15.4C84.3429 15.592 85.1962 15.784 86.0922 15.976C87.0096 16.1467 87.8736 16.392 88.6842 16.712C89.4949 17.032 90.1562 17.4907 90.6682 18.088C91.1802 18.664 91.4362 19.4533 91.4362 20.456C91.4362 22.0133 90.8389 23.208 89.6442 24.04C88.4709 24.8507 86.8922 25.256 84.9082 25.256Z" fill="#D3E8E3"/>
<path d="M92.4625 2.16602L94.6422 1.65625L103.255 28.5508L102.939 28.5859L92.4625 2.16602Z" fill="#00FFC2"/>
<path d="M112.405 25.256C110.848 25.256 109.483 24.8933 108.309 24.168C107.157 23.4213 106.261 22.4187 105.621 21.16C104.981 19.9013 104.661 18.5147 104.661 17C104.661 15.464 104.981 14.0773 105.621 12.84C106.261 11.5813 107.157 10.5893 108.309 9.864C109.483 9.11733 110.848 8.744 112.405 8.744C113.728 8.744 114.859 9 115.797 9.512C116.757 10.024 117.536 10.7173 118.133 11.592V9H120.533V25H118.133V22.44C117.536 23.2933 116.757 23.976 115.797 24.488C114.859 25 113.728 25.256 112.405 25.256ZM112.725 23.08C113.92 23.08 114.923 22.8027 115.733 22.248C116.565 21.6933 117.195 20.9573 117.621 20.04C118.048 19.1013 118.261 18.088 118.261 17C118.261 15.8907 118.048 14.8773 117.621 13.96C117.195 13.0427 116.565 12.3067 115.733 11.752C114.923 11.1973 113.92 10.92 112.725 10.92C111.552 10.92 110.539 11.1973 109.685 11.752C108.832 12.3067 108.181 13.0427 107.733 13.96C107.285 14.8773 107.061 15.8907 107.061 17C107.061 18.088 107.285 19.1013 107.733 20.04C108.181 20.9573 108.832 21.6933 109.685 22.248C110.539 22.8027 111.552 23.08 112.725 23.08ZM131.149 25.256C129.677 25.256 128.429 25.0107 127.405 24.52C126.402 24.0293 125.634 23.3893 125.101 22.6C124.567 21.7893 124.269 20.9147 124.205 19.976H126.701C126.765 20.5093 126.946 21.032 127.245 21.544C127.565 22.0347 128.045 22.44 128.685 22.76C129.325 23.0587 130.157 23.208 131.181 23.208C131.501 23.208 131.895 23.176 132.365 23.112C132.834 23.048 133.282 22.9307 133.709 22.76C134.157 22.5893 134.53 22.3333 134.829 21.992C135.127 21.6507 135.277 21.2133 135.277 20.68C135.277 20.0187 135.021 19.5067 134.509 19.144C133.997 18.7813 133.335 18.504 132.525 18.312C131.714 18.0987 130.85 17.896 129.933 17.704C129.037 17.512 128.183 17.2667 127.373 16.968C126.562 16.648 125.901 16.2107 125.389 15.656C124.877 15.08 124.621 14.3013 124.621 13.32C124.621 11.8693 125.143 10.7493 126.189 9.96C127.255 9.14933 128.823 8.744 130.893 8.744C132.301 8.744 133.442 8.968 134.317 9.416C135.213 9.84267 135.885 10.3973 136.333 11.08C136.802 11.7627 137.079 12.4987 137.165 13.288H134.733C134.647 12.6053 134.306 12.0187 133.709 11.528C133.133 11.0373 132.173 10.792 130.829 10.792C128.29 10.792 127.021 11.56 127.021 13.096C127.021 13.736 127.277 14.2267 127.789 14.568C128.301 14.9093 128.962 15.1867 129.773 15.4C130.583 15.592 131.437 15.784 132.333 15.976C133.25 16.1467 134.114 16.392 134.925 16.712C135.735 17.032 136.397 17.4907 136.909 18.088C137.421 18.664 137.677 19.4533 137.677 20.456C137.677 22.0133 137.079 23.208 135.885 24.04C134.711 24.8507 133.133 25.256 131.149 25.256ZM141.402 25V2.6H143.802V11.496C144.378 10.728 145.082 10.0773 145.914 9.544C146.746 9.01067 147.813 8.744 149.114 8.744C150.223 8.744 151.258 9.01067 152.218 9.544C153.199 10.056 153.989 10.8347 154.586 11.88C155.205 12.904 155.514 14.1733 155.514 15.688V25H153.114V15.752C153.114 14.3013 152.698 13.1387 151.866 12.264C151.034 11.368 149.957 10.92 148.634 10.92C147.738 10.92 146.927 11.1227 146.202 11.528C145.477 11.9333 144.89 12.5093 144.442 13.256C144.015 13.9813 143.802 14.824 143.802 15.784V25H141.402Z" fill="#D3E8E3"/>
</g>
<defs>
<filter id="filter0_d_36_804" x="0.992981" y="0.65625" width="158.521" height="34.9297" filterUnits="userSpaceOnUse" color-interpolation-filters="sRGB">
<feFlood flood-opacity="0" result="BackgroundImageFix"/>
<feColorMatrix in="SourceAlpha" type="matrix" values="0 0 0 0 0 0 0 0 0 0 0 0 0 0 0 0 0 0 127 0" result="hardAlpha"/>
<feOffset dy="3"/>
<feGaussianBlur stdDeviation="2"/>
<feComposite in2="hardAlpha" operator="out"/>
<feColorMatrix type="matrix" values="0 0 0 0 0 0 0 0 0 0 0 0 0 0 0 0 0 0 0.25 0"/>
<feBlend mode="normal" in2="BackgroundImageFix" result="effect1_dropShadow_36_804"/>
<feBlend mode="normal" in="SourceGraphic" in2="effect1_dropShadow_36_804" result="shape"/>
</filter>
</defs>
</svg>
